<mxfile host="app.diagrams.net" modified="2023-11-03T12:35:33.520Z" agent="Mozilla/5.0 (X11; Linux x86_64; rv:109.0) Gecko/20100101 Firefox/119.0" etag="viLAFsYEPi9AdU5Kpide" version="22.0.8" type="github">
  <diagram name="Page-1" id="8378b5f6-a2b2-b727-a746-972ab9d02e00">
    <mxGraphModel dx="5850.5" dy="3331.5" grid="1" gridSize="10" guides="1" tooltips="1" connect="0" arrows="1" fold="1" page="1" pageScale="1.5" pageWidth="1169" pageHeight="827" background="none" math="0" shadow="0">
      <root>
        <mxCell id="0" />
        <mxCell id="1" parent="0" />
        <mxCell id="aHZHP88CDHrV44sjdJHi-327" style="edgeStyle=orthogonalEdgeStyle;rounded=0;orthogonalLoop=1;jettySize=auto;html=1;endArrow=none;endFill=0;strokeWidth=5;" parent="1" source="aHZHP88CDHrV44sjdJHi-320" target="aHZHP88CDHrV44sjdJHi-318" edge="1">
          <mxGeometry relative="1" as="geometry" />
        </mxCell>
        <mxCell id="aHZHP88CDHrV44sjdJHi-320" value="&lt;div align=&quot;left&quot;&gt;&lt;br&gt;&lt;/div&gt;" style="rounded=0;whiteSpace=wrap;html=1;fillColor=#D4E1F5;strokeColor=none;" parent="1" vertex="1">
          <mxGeometry x="-947.47" y="-70" width="783.5291066282421" height="1480" as="geometry" />
        </mxCell>
        <mxCell id="aHZHP88CDHrV44sjdJHi-319" value="" style="rounded=0;whiteSpace=wrap;html=1;strokeColor=none;fillColor=#D4E1F5;" parent="1" vertex="1">
          <mxGeometry x="1289.940893371758" y="-70" width="783.5291066282421" height="1480" as="geometry" />
        </mxCell>
        <mxCell id="aHZHP88CDHrV44sjdJHi-328" style="edgeStyle=orthogonalEdgeStyle;rounded=0;orthogonalLoop=1;jettySize=auto;html=1;endArrow=none;endFill=0;strokeWidth=5;" parent="1" source="aHZHP88CDHrV44sjdJHi-318" target="aHZHP88CDHrV44sjdJHi-319" edge="1">
          <mxGeometry relative="1" as="geometry" />
        </mxCell>
        <mxCell id="aHZHP88CDHrV44sjdJHi-318" value="" style="rounded=0;whiteSpace=wrap;html=1;strokeColor=none;fillColor=#D4E1F5;" parent="1" vertex="1">
          <mxGeometry x="158.1766282420749" y="-70" width="783.5291066282421" height="1480" as="geometry" />
        </mxCell>
        <mxCell id="aHZHP88CDHrV44sjdJHi-305" value="" style="shape=image;verticalLabelPosition=bottom;labelBackgroundColor=default;verticalAlign=top;aspect=fixed;imageAspect=0;image=data:image/svg+xml,PHN2ZyB4bWxucz0iaHR0cDovL3d3dy53My5vcmcvMjAwMC9zdmciIHZpZXdCb3g9IjAgMCA4MzQuNjY5ODMgNTQ2LjU2MDA4IiBoZWlnaHQ9IjU0Ni41NjAwNiIgd2lkdGg9IjgzNC42Njk4IiBpZD0ic3ZnMSIgdmVyc2lvbj0iMS4xIj4mI3hhOyAgPGRlZnMgaWQ9ImRlZnMxIi8+JiN4YTsgICYjeGE7ICA8ZyB0cmFuc2Zvcm09InRyYW5zbGF0ZSgtMjY1LjMzMDE5LC00MDkuMjk2ODMpIiBpZD0iZzEiPiYjeGE7ICAgIDxwYXRoIGQ9Im0gNjA5LjI1MTk1LDQwOS4yOTY4OCBjIC0xNDEuNjU4NSwwLjAwNiAtMjgzLjI5MDY3LDAuNDkyNzcgLTI4OS4yNTE5NSwxLjQ1NTA3IC0xOC43MDgzMSwzLjAxOTk4IC0zOC4zMzQ5NiwxNi42OTMyMiAtNDYuOTU3MDMsMzIuNzE0ODUgLTguMTMyODksMTUuMTEyNjUgLTcuNzA4OTksMi4wMTA1MyAtNy43MDg5OSwyMzkuMTk5MjIgMCwyMzcuMTg4NjggLTAuNDIzOSwyMjQuMDg2NTcgNy43MDg5OSwyMzkuMTk5MjEgOC4zMzQzMSwxNS40ODY5MiAyOC4yOTY3LDI5LjczMjEzIDQ1LjcxMjg5LDMyLjYyMTEgMTAuNTMxMjksMS43NDY5MSA1NjguOTExNTEsMS44NjM1NCA1NzkuOTEwMTYsMC4xMjEwOSAxOC40MTksLTIuOTE4MDIgMzYuNDg5NSwtMTUuMTIxNCA0NS44NDE3OSwtMzAuOTU3MDMgNC4xMTg5NSwtNi45NzQzNSAxMC4wMDMxNywtMjQuMjYyNTYgOC42OTUzMSwtMjUuNTQ4ODMgLTAuMjk1MDIsLTAuMjkwMTYgLTguNTQ4MzMsLTAuNzA3ODUgLTE4LjMzOTg0LC0wLjkyNzczIGwgLTE3LjgwMjczLC0wLjQwMDM5IC0xLjkzNzUsNC42MTMyOCBjIC0yLjQ5MzkzLDUuOTM4MTYgLTcuODI3NzgsMTEuNTIzMzcgLTE0LjA3MDMyLDE0LjczNDM3IC00LjgyMzA2LDIuNDgwODcgLTEyLjExMzM1LDIuNTQ0MTMgLTI5MS4zMzIwMywyLjUxNTYzIC0yNzUuNzAzNTUsLTAuMDI4MiAtMjg2LjU4OTI2LC0wLjEyMDkxIC0yOTEuODE0NDUsLTIuNDk0MTQgLTYuNTA5NTQsLTIuOTU2NTcgLTEyLjk2MzUxLC0xMC40MDYzOCAtMTUuMDUwNzgsLTE3LjM3MzA1IC0xLjEwOTEzLC0zLjcwMTk3IC0xLjUyMTQ5LC01Ni4xMTY5MSAtMS41MjE0OSwtMTkzLjI1NzgxIFYgNTE3LjMzMzk4IGggMzA4IDMwOCB2IDkuNSA5LjUgTCA5MjEuNSw1MzUuNSBjIDIuMjkxNjYsLTAuNDU4MzQgMTAuNjkxMDIsLTAuODMzOTggMTguNjY2MDIsLTAuODMzOTggaCAxNC41IGwgLTAuMDEsLTMwLjMzMjA0IGMgLTAuMDEyMiwtMzYuNjg0ODUgLTEuMDUzNDMsLTQ0LjMwMDE2IC04LjAwNzgxLC01OC41MzEyNSAtOC45OTU4MywtMTguNDA4NjEgLTI3LjMxOTI1LC0zMS44MDI2MiAtNDcuOTgyNDIsLTM1LjA3NjE3IC02LjA3MDc3LC0wLjk2MTc2IC0xNDcuNzU1NTcsLTEuNDM2MDUgLTI4OS40MTQwNywtMS40Mjk2OCB6IG0gMjc0LjQxMjExLDQzLjI3MTQ4IGMgMS4zODIxLDAuMTkxNTkgMi43Nzk5NiwwLjYyNzEzIDQuMTU4MjEsMS4zMzk4NCA5LjA3NjkyLDQuNjkzODcgMTEuMTI5NjMsMTUuMzQ0OTggNC4yNzkyOSwyMi4xOTUzMiAtMy4xMTQyOCwzLjExNDI3IC01LjA2Mzg4LDMuODk2NDggLTkuNzAzMTIsMy44OTY0OCAtNi44MzcwMywwIC0xMC43MzE5MiwtMi4zNjgwMyAtMTMuMDMzMjEsLTcuOTIzODMgLTQuMjYyMjMsLTEwLjI4OTk0IDQuNjI0MTcsLTIwLjg0ODk1IDE0LjI5ODgzLC0xOS41MDc4MSB6IG0gLTgwLjU2MjUsMC42MzA4NiBjIDE5LjgzMzg4LDAuMDcyMSAzOS41OTU4MSwwLjc2OTc1IDQyLjAzOTA2LDIuMDMzMiA3Ljg4ODUxLDQuMDc5MzEgOC45ODA0LDEzLjU4MDE1IDIuMzI2MTgsMjAuMjM0MzggTCA4NDIuOTMzNTksNDgwIDgwMy44MDA3OCw0NzkuOTE2IGMgLTIxLjUyMzMxLC0wLjA0NjUgLTQwLjQwMDUxLC0wLjU5NjkxIC00MS45NDkyMiwtMS4yMjI2NiAtMy45NzQyMiwtMS42MDU3NyAtOC41MTc1OCwtNy43OTU5NSAtOC41MTc1OCwtMTEuNjA1NDcgMCwtNC43OTE1IDMuMzM4ODIsLTEwLjM1OTU4IDcuMjk0OTMsLTEyLjE2MjExIDIuNzMxNzEsLTEuMjQ0NjUgMjIuNjM4NzcsLTEuNzk4NjMgNDIuNDcyNjUsLTEuNzI2NTYgeiBtIDEzNi4xMjExLDEwMS4yOTg4MyBjIC05LjcxODcyLDAuMDY4NCAtMTkuNDQwMjMsMC44MjQxNyAtMjAuNTg3ODksMi4yMDcwMyAtMC45MzA1NiwxLjEyMTI1IC0yLjU4OTA0LDkuNzU2MTQgLTMuNjg1NTUsMTkuMTg3NSBsIC0xLjk5NDE0LDE3LjE0NjQ4IC04LjU4Mzk5LDIuMzI0MjIgYyAtNC43MjEsMS4yNzc5MSAtMTQuMjU4MjUsNS4xNzAyNiAtMjEuMTkzMzYsOC42NDg0NCBsIC0xMi42MDc0Miw2LjMyMjI2IC0xMi45NTMxMiwtMTAuMjMyNDIgYyAtNy4xMjMyNywtNS42Mjg1MiAtMTQuMDc2NDgsLTEwLjY2NTA4IC0xNS40NTMxMywtMTEuMTkxNCAtMS45NzM4OCwtMC43NTQ2NSAtNS40MjcyNiwxLjkxOTU1IC0xNi4zMzM5OCwxMi42NTIzNCBDIDgxNy44Njg5Niw2MDkuMzk2NjYgODEyLDYxNi4yNTI4MSA4MTIsNjE3LjcxNjggYyAwLDEuMzk4ODEgNC4yOTI5Nyw4LjAzNDE3IDkuNTM5MDYsMTQuNzQ2MDkgNS4yNDYxLDYuNzExOTMgMTAuMDY2ODYsMTIuODkyODYgMTAuNzE0ODUsMTMuNzM0MzggMC43NDU0MSwwLjk2ODAxIC0wLjUyNTQ5LDQuNjQxMjQgLTMuNDYwOTQsMTAgLTIuNTUxODUsNC42NTg0NyAtNi40MDg5OSwxMy43NTQ5MyAtOC41NzIyNywyMC4yMTQ4NCAtMi4xNjMyNyw2LjQ1OTkxIC00LjM0NTAyLDEyLjE1OTI3IC00Ljg0NzY1LDEyLjY2NjAxIC0wLjUwMjYzLDAuNTA2NzUgLTguNTAxMjEsMS44MjE4OCAtMTcuNzc1MzksMi45MjE4OCAtMjAuNjc0NDEsMi40NTIxNyAtMjAuMjI0NjEsMS45MTg0IC0yMC4yMjQ2MSwyNCAwLDIyLjA3NTI0IC0wLjQ2MjgyLDIxLjUyNTI1IDIwLjMyMDMxLDI0LjEwNTQ3IDkuMzMwMTQsMS4xNTgzNCAxNy4zNjAzNywyLjUwMjk1IDE3Ljg0NTcsMi45ODgyOCAwLjQ4NTMzLDAuNDg1MzMgMi41MTE4LDUuOTUxNzUgNC41MDM5MSwxMi4xNDY0OCAxLjk5MjExLDYuMTk0NzMgNS44MDg3OCwxNS4yMzkwNyA4LjQ4MDQ3LDIwLjA5OTYxIDIuNjcxNjgsNC44NjA1NCA0LjQyOTY3LDkuNTQ4MyAzLjkwODIsMTAuNDE2MDIgLTAuNTIxNDYsMC44Njc3MiAtNS4zMzEyMyw3LjA0NjY2IC0xMC42ODk0NSwxMy43MzA0NyBDIDgxNi4zODM5Niw4MDYuMTcwMTMgODEyLDgxMi44MDU0OSA4MTIsODE0LjIzMjQyIDgxMiw4MTYuOTI1MTcgODM4LjQyMTEsODQ0IDg0MS4wNDg4Myw4NDQgYyAwLjc4OTQ0LDAgNy43Njk3NywtNS4wMTk4MyAxNS41MTE3MiwtMTEuMTU2MjUgbCAxNC4wNzYxNywtMTEuMTU4MiAxMS4wMTU2Miw1Ljc0NjA5IGMgNi4wNTgyNSwzLjE1OTc5IDE1LjU4OTMsNy4wNzA5NCAyMS4xODE2NCw4LjY5MTQxIGwgMTAuMTY3OTcsMi45NDUzMSAxLjUsMTMuMTc5NjkgYyAwLjgyNDMxLDcuMjQ5MTIgMS40OTgwNSwxNC41MjYwNCAxLjQ5ODA1LDE2LjE2OTkyIDAsMS42NDM4OCAwLjkzNDU5LDQuMzIxMzMgMi4wNzYxNyw1Ljk1MTE3IDEuOTgwNTcsMi44Mjc2NiAyLjk0OTc1LDIuOTY0ODQgMjEuMTY5OTIsMi45NjQ4NCAxNC4xMjcxMSwwIDE5LjQ3MTE0LC0wLjQ1NjE3IDIwLjU0NDkzLC0xLjc1IDAuNzk4MjQsLTAuOTYxODIgMi40MDcsLTkuNDk1NDUgMy41NzQyMSwtMTguOTY0ODQgMS4xNjcyMiwtOS40NjkzOCAyLjIzNzkyLC0xNy4yOTgxOCAyLjM3ODkxLC0xNy4zOTY0OCAwLjE0MSwtMC4wOTgzIDQuNjI3MDksLTEuNDg4MTMgOS45NzA3LC0zLjA4Nzg5IDUuMzQzNjIsLTEuNTk5NzYgMTQuNzIwODUsLTUuNDgzMjYgMjAuODM3ODksLTguNjMwODYgbCAxMS4xMjMwNywtNS43MjI2NiAxNC4yNTk3LDExLjEwOTM3IGMgNy44NDM0LDYuMTEwMjMgMTQuOTA0LDExLjEwOTM4IDE1LjY4OTUsMTEuMTA5MzggMi40Mzk4LDAgMjkuMDQxLC0yNy4wMzc3NyAyOS4wNDEsLTI5LjUxNzU4IDAsLTEuMjg5NzIgLTQuODYwMiwtOC40NDU1MSAtMTAuODAwOCwtMTUuOTAyMzQgbCAtMTAuODAwNywtMTMuNTU4NiA2Ljc2MTcsLTE0LjI0MDIzIGMgMy43MTkzLC03LjgzMjMzIDcuNDc2NCwtMTcuMzM2MjEgOC4zNDk2LC0yMS4xMTkxNCAxLjgyMTgsLTcuODkyNTkgMC42NjE5LC03LjM4OTQyIDIyLjQ5MDIsLTkuNzc1MzkgNy43LC0wLjg0MTY2IDE0Ljc1MTMsLTIuMTMzMDUgMTUuNjY4LC0yLjg3MTEgMS4xOTgyLC0wLjk2NDcxIDEuNjY2LC02LjkwNTUzIDEuNjY2LC0yMS4xMzI4MSAwLC0xNy40OTU0NiAtMC4yNzEyLC0xOS45MjkyNCAtMi4zMzQsLTIxLjAwMzkgLTEuMjgzMywtMC42Njg1NyAtOC42MzIsLTEuOTIwMDIgLTE2LjMzMiwtMi43ODEyNSAtMjAuNjQwMywtMi4zMDg1NiAtMTkuMzM5MiwtMS43MDk2OSAtMjEuMTQ2NSwtOS43MzQzOCAtMC44NzA3LC0zLjg2NjIyIC00LjU2OTIsLTEzLjI1MDUyIC04LjIxODcsLTIwLjg1MzUxIC0zLjY0OTYsLTcuNjAzIC02LjYzNDgsLTEzLjk5MTIxIC02LjYzNDgsLTE0LjE5NTMyIDAsLTAuMjA0MSA0Ljc5OTQsLTYuNDk0NjkgMTAuNjY2LC0xMy45ODA0NyA1Ljg2NjcsLTcuNDg1NzggMTAuNjY2LC0xNC41MzM2NSAxMC42NjYsLTE1LjY2MDE1IDAsLTEuMTI2NDkgLTUuODEyMSwtNy45NjI3NiAtMTIuOTE2LC0xNS4xOTMzNiAtOS4yMDE5LC05LjM2NTkxIC0xMy44MzI2LC0xMy4xNDY0OSAtMTYuMTAxNiwtMTMuMTQ2NDkgLTEuOTUxOCwwIC04LjM1NzYsNC4wNDg2NSAtMTYuNTQ0OSwxMC40NTg5OSBsIC0xMy4zNTk0LDEwLjQ2MDk0IC0xMS4wNzQxOCwtNS42OTcyNyBjIC02LjA5MDg0LC0zLjEzNDEyIC0xNS40ODQyOCwtNy4wMDUzNiAtMjAuODczMDQsLTguNjAxNTYgLTUuMzg4NzcsLTEuNTk2MTkgLTkuOTExNzQsLTMuMDAzOCAtMTAuMDUyNzQsLTMuMTI4OTEgLTAuMTQwOTksLTAuMTI1MSAtMS4yMTE2OSwtNy45NzU5MiAtMi4zNzg5MSwtMTcuNDQ1MzEgLTEuMTY3MjEsLTkuNDY5MzkgLTIuNzc1OTcsLTE4LjAwMzAzIC0zLjU3NDIxLC0xOC45NjQ4NCAtMS4xMzQzMywtMS4zNjY3OSAtMTAuODQ5NjUsLTEuOTg2NDIgLTIwLjU2ODM2LC0xLjkxNzk3IHogbSAtNC4wODU5NCw3Mi4zMzAwNyBjIDQxLjA0MDIyLC0xLjk0MzgyIDc5Ljc3MTQ4LDI1LjAzMjY0IDkwLjg2MTI4LDY3LjgzMDA4IDQuNjQzNiwxNy45MjAzIDEuOTQzLDQ0LjMxMjg5IC02LjE4MzUsNjAuNDM5NDYgLTEyLjAyMzEsMjMuODU4ODUgLTMzLjMwOTU4LDQwLjk2MDM0IC01OS4yMzgzMyw0Ny41OTE3OSAtNi41NzAwOCwxLjY4MDM1IC0xNC41MDg2NCwyLjYxNzAyIC0yMS43ODkwNiwyLjU3MDMyIC0zMy4zNjkzNywtMC4yMTM5IC02My40MDQ3LC0xOC40ODAxMyAtNzguNjQ4NDQsLTQ3LjgzMjA0IC03LjQ2NzAzLC0xNC4zNzc4MSAtOS45NDkyMiwtMjQuNzE0NTIgLTkuOTQ5MjIsLTQxLjQyNzczIDAsLTE2LjczOTY4IDIuNDgxODUsLTI3LjA0OTA3IDkuOTk2MSwtNDEuNTE3NTggOS42NDU5LC0xOC41NzI5NCAyNi42MTQ1OSwtMzMuNzM0MDMgNDYuNDgwNDcsLTQxLjUyNzM0IDkuNDA1NDksLTMuNjg5NzUgMTguOTk5ODgsLTUuNjc4MzggMjguNDcwNywtNi4xMjY5NiB6IE0gOTQwLDY0MS4zNjcxOSBjIC0yMi41MjQ5OSwtMC4wMDQgLTM4Ljc2NzQsNi41NzM5NSAtNTMuOTc0NjEsMjEuODU5MzcgLTE5LjIyMDg0LDE5LjMxOTcyIC0yNi4yMTMxNCw0NS4zMDk2NiAtMTkuMzc4OTEsNzIuMDMxMjUgNy40MzE0OSwyOS4wNTY4MSAzMS44NzQyMyw1MC45NDUzMyA2MS42NTQzLDU1LjIxMjg5IDMwLjQ4MjAzLDQuMzY4MTYgNjIuNzQ2ODgsLTExLjYzMjMgNzYuNzMyNDIsLTM4LjA1MjczIDUuMzU3LC0xMC4xMjAxMSA5LjYzMjgsLTI2LjI4NzE5IDkuNjMyOCwtMzYuNDE3OTcgMCwtMjMuMTY2MSAtMTIuNDI4MiwtNDcuMjI1NjkgLTMxLjM4MDg0LC02MC43NSBDIDk3MC4yNDE3OCw2NDUuOTQyNDMgOTU1Ljk4NTEsNjQxLjM3MDE5IDk0MCw2NDEuMzY3MTkgWiBNIDQ1NS4zMzM5OCw2NTMuMzMzOTggNDM0Ljc1OTc3LDcxNyBjIC0xMS4zMTU0MSwzNS4wMTY0NyAtMjAuODExNDEsNjQuMTMzMjEgLTIxLjEwMTU3LDY0LjcwMzEyIC0wLjI5MDE3LDAuNTY5OTcgOC4zNTQ4NCwwLjg2OTI4IDE5LjIxMDk0LDAuNjY2MDIgTCA0NTIuNjA3NDIsNzgyIGwgMy4xODk0NiwtMTEuNjY2MDIgMy4xODk0NSwtMTEuNjY3OTYgaCAyMC4yMDExNyAyMC4yMDMxMiBsIDMuMTI4OTEsMTIgMy4xMzA4NiwxMiBoIDE5LjE3NTc4IGMgMTAuNTQ1ODksMCAxOS4xNzM4MywtMC4zNjU5OCAxOS4xNzM4MywtMC44MTQ0NiAwLC0wLjQ0ODQ3IC05LjQyMjI5LC0yOS41NDk4MSAtMjAuOTM3NSwtNjQuNjY3OTcgbCAtMjAuOTM1NTUsLTYzLjg0OTYxIGggLTIzLjM5NjQ4IHogbSAxMTEuMzMyMDQsMS4xMjExIHYgNjQuMTA1NDcgNjQuMTA1NDcgSCA1ODQgNjAxLjMzMzk4IFYgNzYxLjQ4NDM4IDc0MC4zMDI3MyBMIDYxNSw3MzkuNzM2MzMgYyAxNi4zMTc3MSwtMC42NzU5NyAyNC40NjUwOSwtMy42OTg3MyAzMi43MzQzOCwtMTIuMTQ2NDkgNy4yMjgyOSwtNy4zODQyOCAxMC45ODg1NiwtMTYuMjc1NTYgMTEuODgyODEsLTI4LjA5OTYxIDEuNDMzNjQsLTE4Ljk1NTk3IC01LjUwNTg0LC0zMi4zMTIyNCAtMjAuNjY3OTcsLTM5Ljc4MTI1IGwgLTguODgyODEsLTQuMzc1IC0zMS42OTkyMiwtMC40Mzk0NSB6IE0gNjg4LDY1NC42NjYwMiB2IDY0IDY0IGggMTggMTggdiAtNjQgLTY0IGggLTE4IHogbSAtMjA5LjIzNDM4LDI3LjQ5MDIzIGMgMC44NjcxLDAuMjkxNjUgMi4zNTY4Niw1LjQxMjY4IDUuODYxMzMsMTkuMTc3NzMgMy4wODA1NiwxMi4wOTk5OSA2LjAzOTQsMjMuMzUwMDEgNi41NzYxNywyNSAwLjk2NjIzLDIuOTcwMSAwLjg0OTk3LDMgLTExLjc3OTI5LDMgLTcuMDE2MDcsMCAtMTIuNzU3ODEsLTAuMjcwNzMgLTEyLjc1NzgxLC0wLjU5OTYgMCwtMC4zMjg4NyAyLjM0NDIyLC05Ljc3ODkgNS4yMDg5OCwtMjEgMi44NjQ3NywtMTEuMjIxMTIgNS42NDU3MSwtMjIuMjAwNCA2LjE3OTY5LC0yNC40MDA0IDAuMjAyNDgsLTAuODM0MjQgMC40MjE5LC0xLjI3NDk1IDAuNzEwOTMsLTEuMTc3NzMgeiBtIDEyMi41NjgzNiwwLjEzNjcyIDcuNDM1NTUsMC43Njc1OCBjIDkuMDg0NzEsMC45Mzc2MiAxMy4zODQxNiwzLjU2NTExIDE0LjU1NDY5LDguODk0NTMgMi4wMTA4LDkuMTU1MSAtMi44MzM2LDE2LjYxODYgLTEyLjE5NTMxLDE4Ljc5MTAxIC0xMC4yMDk5OSwyLjM2OTI4IC05Ljc5NDkzLDIuOTQ0NDcgLTkuNzk0OTMsLTEzLjU5OTYxIHogbSAzMzcuODgyODIsNy4wNjI1IGMgNi4wMzMwNSwtMC4wMTY4IDkuMjE4MjQsMC43NjEzNCAxMy41NzgxMiwzLjMxNjQxIDE4LjEwODI5LDEwLjYxMjE2IDE4LjE3Mjg0LDM2LjIxMzIxIDAuMTE3MTksNDYuNDk0MTQgLTYuNTY2NzgsMy43MzkxNCAtMTEuODIwNTEsNC43NTcxNyAtMTguMjQ2MDksMy41MzMyIC0zMi41MTU5LC02LjE5MzczIC0yOC41MDEyLC01My4yNTE3NSA0LjU1MDc4LC01My4zNDM3NSB6IiBzdHlsZT0iZmlsbDojMzM4ZWUzO3N0cm9rZS13aWR0aDoxLjE3NTQzIiBpZD0icmVjdDE4Ii8+JiN4YTsgIDwvZz4mI3hhOzwvc3ZnPg==;" parent="1" vertex="1">
          <mxGeometry x="327.593032853026" y="128.97294117647075" width="427.28399547772113" height="279.85012295499894" as="geometry" />
        </mxCell>
        <mxCell id="aHZHP88CDHrV44sjdJHi-306" value="" style="shape=image;verticalLabelPosition=bottom;labelBackgroundColor=default;verticalAlign=top;aspect=fixed;imageAspect=0;image=data:image/svg+xml,PHN2ZyB2aWV3Qm94PSItMTEuNSAtMTAuMjMxNzQgMjMgMjAuNDYzNDgiIHhtbG5zPSJodHRwOi8vd3d3LnczLm9yZy8yMDAwL3N2ZyI+JiN4YTsgIDx0aXRsZT5SZWFjdCBMb2dvPC90aXRsZT4mI3hhOyAgPGNpcmNsZSBmaWxsPSIjNjFkYWZiIiByPSIyLjA1IiBjeT0iMCIgY3g9IjAiLz4mI3hhOyAgPGcgZmlsbD0ibm9uZSIgc3Ryb2tlLXdpZHRoPSIxIiBzdHJva2U9IiM2MWRhZmIiPiYjeGE7ICAgIDxlbGxpcHNlIHJ5PSI0LjIiIHJ4PSIxMSIvPiYjeGE7ICAgIDxlbGxpcHNlIHRyYW5zZm9ybT0icm90YXRlKDYwKSIgcnk9IjQuMiIgcng9IjExIi8+JiN4YTsgICAgPGVsbGlwc2UgdHJhbnNmb3JtPSJyb3RhdGUoMTIwKSIgcnk9IjQuMiIgcng9IjExIi8+JiN4YTsgIDwvZz4mI3hhOzwvc3ZnPg==;" parent="1" vertex="1">
          <mxGeometry x="1414.22" y="336" width="534.98" height="465.2" as="geometry" />
        </mxCell>
        <mxCell id="aHZHP88CDHrV44sjdJHi-313" value="&lt;font style=&quot;font-size: 50px;&quot;&gt;Azure Cosmos DB&lt;br&gt;&lt;/font&gt;" style="text;html=1;align=center;verticalAlign=middle;resizable=0;points=[];autosize=1;strokeColor=none;fillColor=none;" parent="1" vertex="1">
          <mxGeometry x="-770.7030259365995" y="950.0029411764706" width="430" height="70" as="geometry" />
        </mxCell>
        <mxCell id="aHZHP88CDHrV44sjdJHi-314" value="&lt;font style=&quot;font-size: 50px;&quot;&gt;RESTful API&lt;/font&gt;" style="text;html=1;align=center;verticalAlign=middle;resizable=0;points=[];autosize=1;strokeColor=none;fillColor=none;" parent="1" vertex="1">
          <mxGeometry x="358.413032853026" y="50.00470588235311" width="300" height="70" as="geometry" />
        </mxCell>
        <mxCell id="aHZHP88CDHrV44sjdJHi-315" value="&lt;font style=&quot;font-size: 50px;&quot;&gt;Node.js&lt;/font&gt;" style="text;html=1;align=center;verticalAlign=middle;resizable=0;points=[];autosize=1;strokeColor=none;fillColor=none;" parent="1" vertex="1">
          <mxGeometry x="432.00184438040344" y="1038.995294117647" width="190" height="70" as="geometry" />
        </mxCell>
        <mxCell id="aHZHP88CDHrV44sjdJHi-316" value="&lt;font style=&quot;font-size: 50px;&quot;&gt;React JS&lt;/font&gt;" style="text;html=1;align=center;verticalAlign=middle;resizable=0;points=[];autosize=1;strokeColor=none;fillColor=none;" parent="1" vertex="1">
          <mxGeometry x="1560.0048414985588" y="900.0047058823529" width="230" height="70" as="geometry" />
        </mxCell>
        <mxCell id="aHZHP88CDHrV44sjdJHi-321" value="&lt;font color=&quot;#613583&quot; style=&quot;font-size: 50px;&quot;&gt;DATABASE&lt;/font&gt;" style="text;html=1;align=center;verticalAlign=middle;resizable=0;points=[];autosize=1;strokeColor=none;fillColor=none;" parent="1" vertex="1">
          <mxGeometry x="-938.47" y="1331.0017647058821" width="280" height="70" as="geometry" />
        </mxCell>
        <mxCell id="aHZHP88CDHrV44sjdJHi-322" value="&lt;font color=&quot;#613583&quot; style=&quot;font-size: 50px;&quot;&gt;BACKEND&lt;/font&gt;" style="text;html=1;align=center;verticalAlign=middle;resizable=0;points=[];autosize=1;strokeColor=none;fillColor=none;" parent="1" vertex="1">
          <mxGeometry x="173.1766282420749" y="1329.0017647058821" width="260" height="70" as="geometry" />
        </mxCell>
        <mxCell id="aHZHP88CDHrV44sjdJHi-324" value="&lt;font color=&quot;#613583&quot; style=&quot;font-size: 50px;&quot;&gt;FRONTEND&lt;/font&gt;" style="text;html=1;align=center;verticalAlign=middle;resizable=0;points=[];autosize=1;strokeColor=none;fillColor=none;" parent="1" vertex="1">
          <mxGeometry x="1306.000893371758" y="1329.0017647058821" width="300" height="70" as="geometry" />
        </mxCell>
        <mxCell id="NBjXsGj1B2KpxyDeokSY-1" value="" style="outlineConnect=0;dashed=0;verticalLabelPosition=bottom;verticalAlign=top;align=center;html=1;shape=mxgraph.aws3.android;fillColor=#8CC64F;gradientColor=none;" vertex="1" parent="1">
          <mxGeometry x="362.40999999999985" y="639.86" width="333.5" height="381.14" as="geometry" />
        </mxCell>
        <mxCell id="NBjXsGj1B2KpxyDeokSY-2" value="" style="image;aspect=fixed;html=1;points=[];align=center;fontSize=12;image=img/lib/azure2/databases/Azure_Cosmos_DB.svg;" vertex="1" parent="1">
          <mxGeometry x="-817.71" y="336" width="524" height="524" as="geometry" />
        </mxCell>
      </root>
    </mxGraphModel>
  </diagram>
</mxfile>
